<svg width="139" height="96" viewBox="0 0 140 96" fill="none" xmlns="http://www.w3.org/2000/svg">
<path d="M38.885 95.965C31.811 95.965 25.392 94.0873 19.628 90.332C13.864 86.5767 9.279 81.1183 5.873 73.957C2.55433 66.7083 0.895 58.106 0.895 48.15C0.895 38.194 2.55433 29.6353 5.873 22.474C9.279 15.2253 13.864 9.72333 19.628 5.96799C25.392 2.21266 31.811 0.334996 38.885 0.334996C45.959 0.334996 52.378 2.21266 58.142 5.96799C63.906 9.72333 68.4473 15.2253 71.766 22.474C75.172 29.6353 76.875 38.194 76.875 48.15C76.875 58.106 75.172 66.7083 71.766 73.957C68.4473 81.1183 63.906 86.5767 58.142 90.332C52.378 94.0873 45.959 95.965 38.885 95.965ZM38.885 93.345C48.9283 93.345 53.95 78.28 53.95 48.15C53.95 18.02 48.9283 2.95499 38.885 2.95499C28.8417 2.95499 23.82 18.02 23.82 48.15C23.82 78.28 28.8417 93.345 38.885 93.345ZM101.1 95.965C95.0738 95.965 89.9211 95.1353 85.6418 93.476C81.4498 91.8167 78.2621 89.677 76.0788 87.057C73.9828 84.437 72.9348 81.7297 72.9348 78.935C72.9348 75.9657 73.8081 73.6077 75.5548 71.861C77.3888 70.027 79.7904 69.11 82.7598 69.11C83.4584 69.11 84.1571 69.1973 84.8558 69.372C85.5544 69.4593 86.0348 69.503 86.2968 69.503L87.9998 69.765V90.725C88.0871 90.725 89.0041 91.0743 90.7508 91.773C93.0214 92.3843 95.5978 92.69 98.4798 92.69C104.593 92.69 109.265 90.856 112.497 87.188C115.815 83.4327 117.475 77.8433 117.475 70.42C117.475 62.822 115.859 57.1017 112.628 53.259C109.484 49.4163 105.204 47.495 99.7898 47.495H93.2398V44.22H99.7898C103.72 44.22 106.995 42.4733 109.615 38.98C112.235 35.4867 113.545 30.465 113.545 23.915C113.545 17.365 112.191 12.3433 109.484 8.85C106.776 5.35666 103.327 3.60999 99.1348 3.60999C96.8641 3.60999 94.6808 3.95933 92.5848 4.65799C92.3228 4.74533 91.4494 5.05099 89.9648 5.575V26.535L88.2618 26.928C86.8644 27.1027 85.6854 27.19 84.7248 27.19C81.7554 27.19 79.3538 26.3167 77.5198 24.57C75.7731 22.736 74.8998 20.3343 74.8998 17.365C74.8998 14.6577 75.9478 11.994 78.0438 9.374C80.1398 6.75399 83.1964 4.61433 87.2138 2.95499C91.3184 1.20833 96.1654 0.334996 101.755 0.334996C109.091 0.334996 115.291 1.42666 120.357 3.60999C125.509 5.706 129.352 8.54433 131.885 12.125C134.505 15.7057 135.815 19.6357 135.815 23.915C135.815 28.893 134.548 32.8667 132.016 35.836C129.483 38.718 126.164 41.0323 122.06 42.779C118.042 44.351 113.457 45.268 108.305 45.53V46.185C114.069 46.447 119.309 47.4513 124.025 49.198C134.505 53.39 139.745 60.464 139.745 70.42C139.745 78.1053 136.557 84.306 130.182 89.022C123.894 93.6507 114.2 95.965 101.1 95.965Z" fill="none" stroke="url(#paint0_linear)" stroke-width="2"/>
<defs>
<linearGradient id="paint0_linear" x1="68" y1="-14" x2="68" y2="83" gradientUnits="userSpaceOnUse">
<stop stop-color="white"/>
<stop offset="1" stop-color="white" stop-opacity="0"/>
</linearGradient>
</defs>
</svg>
