<?xml version="1.0" standalone="no"?><svg xmlns="http://www.w3.org/2000/svg" viewBox="0 0 1440 320"><path fill="#f9f5ff" fill-opacity="1" d="M0,96L34.3,117.3C68.6,139,137,181,206,202.7C274.3,224,343,224,411,192C480,160,549,96,617,90.7C685.7,85,754,139,823,165.3C891.4,192,960,192,1029,160C1097.1,128,1166,64,1234,74.7C1302.9,85,1371,171,1406,213.3L1440,256L1440,320L1405.7,320C1371.4,320,1303,320,1234,320C1165.7,320,1097,320,1029,320C960,320,891,320,823,320C754.3,320,686,320,617,320C548.6,320,480,320,411,320C342.9,320,274,320,206,320C137.1,320,69,320,34,320L0,320Z"></path></svg>