<svg width="139" height="96" viewBox="0 0 119 96" fill="none" xmlns="http://www.w3.org/2000/svg">
<path d="M38.885 95.965C31.811 95.965 25.392 94.0873 19.628 90.332C13.864 86.5767 9.279 81.1183 5.873 73.957C2.55433 66.7083 0.895 58.106 0.895 48.15C0.895 38.194 2.55433 29.6353 5.873 22.474C9.279 15.2253 13.864 9.72333 19.628 5.96799C25.392 2.21266 31.811 0.334996 38.885 0.334996C45.959 0.334996 52.378 2.21266 58.142 5.96799C63.906 9.72333 68.4473 15.2253 71.766 22.474C75.172 29.6353 76.875 38.194 76.875 48.15C76.875 58.106 75.172 66.7083 71.766 73.957C68.4473 81.1183 63.906 86.5767 58.142 90.332C52.378 94.0873 45.959 95.965 38.885 95.965ZM38.885 93.345C48.9283 93.345 53.95 78.28 53.95 48.15C53.95 18.02 48.9283 2.95499 38.885 2.95499C28.8417 2.95499 23.82 18.02 23.82 48.15C23.82 78.28 28.8417 93.345 38.885 93.345ZM78.8298 94V92.035L87.9998 89.415V17.496L74.2448 27.19L71.6248 23.915L95.4668 2.29999H109.615V89.415L118.785 92.035V94H78.8298Z" fill="none" stroke="url(#paint0_linear)" stroke-width="2"/>
<defs>
<linearGradient id="paint0_linear" x1="68" y1="-14" x2="68" y2="83" gradientUnits="userSpaceOnUse">
<stop stop-color="white"/>
<stop offset="1" stop-color="white" stop-opacity="0"/>
</linearGradient>
</defs>
</svg>
