<svg width="139" height="96" viewBox="0 0 139 96" fill="none" xmlns="http://www.w3.org/2000/svg">
<path d="M38.885 95.965C31.811 95.965 25.392 94.0873 19.628 90.332C13.864 86.5767 9.279 81.1183 5.873 73.957C2.55433 66.7083 0.895 58.106 0.895 48.15C0.895 38.194 2.55433 29.6353 5.873 22.474C9.279 15.2253 13.864 9.72333 19.628 5.96799C25.392 2.21266 31.811 0.334996 38.885 0.334996C45.959 0.334996 52.378 2.21266 58.142 5.96799C63.906 9.72333 68.4473 15.2253 71.766 22.474C75.172 29.6353 76.875 38.194 76.875 48.15C76.875 58.106 75.172 66.7083 71.766 73.957C68.4473 81.1183 63.906 86.5767 58.142 90.332C52.378 94.0873 45.959 95.965 38.885 95.965ZM38.885 93.345C48.9283 93.345 53.95 78.28 53.95 48.15C53.95 18.02 48.9283 2.95499 38.885 2.95499C28.8417 2.95499 23.82 18.02 23.82 48.15C23.82 78.28 28.8417 93.345 38.885 93.345ZM73.5898 88.105C73.5898 82.9523 74.5941 78.28 76.6028 74.088C78.6988 69.8087 81.2314 66.097 84.2008 62.953C87.1701 59.809 91.0564 56.0973 95.8598 51.818C100.314 47.888 103.807 44.613 106.34 41.993C108.872 39.2857 111.012 36.2727 112.759 32.954C114.505 29.548 115.379 25.88 115.379 21.95C115.379 16.186 113.981 11.6883 111.187 8.45699C108.392 5.22566 104.768 3.60999 100.314 3.60999C97.7811 3.60999 95.2048 3.95933 92.5848 4.65799L89.8338 5.575V26.535L88.1308 26.928C86.7334 27.1027 85.5544 27.19 84.5938 27.19C81.6244 27.19 79.2228 26.3167 77.3888 24.57C75.6421 22.736 74.7688 20.3343 74.7688 17.365C74.7688 14.5703 75.8168 11.863 77.9128 9.243C80.0961 6.623 83.2838 4.48333 87.4758 2.82399C91.7551 1.16466 96.9078 0.334996 102.934 0.334996C114.724 0.334996 123.457 2.693 129.134 7.409C134.81 12.125 137.649 18.7187 137.649 27.19C137.649 32.5173 136.251 37.1023 133.457 40.945C130.749 44.7877 127.387 47.9753 123.37 50.508C119.44 53.0407 114.156 55.9227 107.519 59.154C101.929 61.8613 97.3881 64.263 93.8948 66.359C90.4888 68.3677 87.3011 70.813 84.3318 73.695C81.4498 76.577 79.3974 79.852 78.1748 83.52H126.645C127.256 78.804 128.741 74.874 131.099 71.73C132.059 70.2453 133.195 68.9353 134.505 67.8H138.435V94H73.5898V88.105Z" fill="none" stroke="url(#paint0_linear)" stroke-width="2"/>

<defs>
<linearGradient id="paint0_linear" x1="68" y1="-14" x2="68" y2="83" gradientUnits="userSpaceOnUse">
<stop stop-color="white"/>
<stop offset="1" stop-color="white" stop-opacity="0"/>
</linearGradient>
</defs>
</svg>
