<svg width="139" height="110" viewBox="0 0 140 110" fill="none" xmlns="http://www.w3.org/2000/svg">
<path d="M38.885 109.965C31.811 109.965 25.392 108.087 19.628 104.332C13.864 100.577 9.279 95.1183 5.873 87.957C2.55433 80.7083 0.895 72.106 0.895 62.15C0.895 52.194 2.55433 43.6353 5.873 36.474C9.279 29.2253 13.864 23.7233 19.628 19.968C25.392 16.2127 31.811 14.335 38.885 14.335C45.959 14.335 52.378 16.2127 58.142 19.968C63.906 23.7233 68.4473 29.2253 71.766 36.474C75.172 43.6353 76.875 52.194 76.875 62.15C76.875 72.106 75.172 80.7083 71.766 87.957C68.4473 95.1183 63.906 100.577 58.142 104.332C52.378 108.087 45.959 109.965 38.885 109.965ZM38.885 107.345C48.9283 107.345 53.95 92.28 53.95 62.15C53.95 32.02 48.9283 16.955 38.885 16.955C28.8417 16.955 23.82 32.02 23.82 62.15C23.82 92.28 28.8417 107.345 38.885 107.345ZM102.41 109.965C96.3838 109.965 91.2311 109.135 86.9518 107.476C82.7598 105.817 79.5721 103.677 77.3888 101.057C75.2928 98.437 74.2448 95.7297 74.2448 92.935C74.2448 89.9657 75.1181 87.6077 76.8648 85.861C78.6988 84.027 81.1004 83.11 84.0698 83.11C84.7684 83.11 85.4671 83.1973 86.1658 83.372C86.8644 83.4593 87.3448 83.503 87.6068 83.503L89.3098 83.765V104.725C89.3971 104.725 90.3141 105.074 92.0608 105.773C94.3314 106.384 96.9078 106.69 99.7898 106.69C105.03 106.69 109.178 104.55 112.235 100.271C115.291 95.9043 116.82 89.0923 116.82 79.835C116.82 70.665 115.248 64.0277 112.104 59.923C108.96 55.731 104.418 53.635 98.4798 53.635C96.2091 53.635 94.0694 54.028 92.0608 54.814C90.0521 55.6 87.9124 56.648 85.6418 57.958C83.8078 59.0933 81.9738 60.4907 80.1398 62.15L77.5198 60.185L82.7598 16.3H121.405C122.016 11.584 123.501 7.654 125.859 4.51C126.819 3.02533 127.955 1.71533 129.265 0.579993H133.195V26.125H85.6418L82.1048 56.255C83.3274 55.3817 85.1178 54.421 87.4758 53.373C92.3664 51.3643 96.9078 50.36 101.1 50.36C113.85 50.36 123.37 52.98 129.658 58.22C135.946 63.3727 139.09 70.5777 139.09 79.835C139.09 89.267 135.989 96.6467 129.789 101.974C123.588 107.301 114.462 109.965 102.41 109.965Z" fill="none" stroke="url(#paint0_linear)" stroke-width="2"/>

<defs>
<linearGradient id="paint0_linear" x1="68" y1="-14" x2="68" y2="83" gradientUnits="userSpaceOnUse">
<stop stop-color="white"/>
<stop offset="1" stop-color="white" stop-opacity="0"/>
</linearGradient>
</defs>
</svg>
