<svg width="145" height="96" viewBox="0 0 145 96" fill="none" xmlns="http://www.w3.org/2000/svg">
<path d="M38.885 95.965C31.811 95.965 25.392 94.0873 19.628 90.332C13.864 86.5767 9.279 81.1183 5.873 73.957C2.55433 66.7083 0.895 58.106 0.895 48.15C0.895 38.194 2.55433 29.6353 5.873 22.474C9.279 15.2253 13.864 9.72333 19.628 5.96799C25.392 2.21266 31.811 0.334996 38.885 0.334996C45.959 0.334996 52.378 2.21266 58.142 5.96799C63.906 9.72333 68.4473 15.2253 71.766 22.474C75.172 29.6353 76.875 38.194 76.875 48.15C76.875 58.106 75.172 66.7083 71.766 73.957C68.4473 81.1183 63.906 86.5767 58.142 90.332C52.378 94.0873 45.959 95.965 38.885 95.965ZM38.885 93.345C48.9283 93.345 53.95 78.28 53.95 48.15C53.95 18.02 48.9283 2.95499 38.885 2.95499C28.8417 2.95499 23.82 18.02 23.82 48.15C23.82 78.28 28.8417 93.345 38.885 93.345ZM111.58 95.965C100.576 95.965 91.9298 92.035 85.6418 84.175C79.3538 76.315 76.2098 64.3067 76.2098 48.15C76.2098 32.43 79.6158 20.5527 86.4278 12.518C93.3271 4.396 102.803 0.334996 114.855 0.334996C120.007 0.334996 124.505 1.20833 128.348 2.95499C132.278 4.61433 135.247 6.75399 137.256 9.374C139.352 11.994 140.4 14.6577 140.4 17.365C140.4 20.3343 139.483 22.736 137.649 24.57C135.902 26.3167 133.544 27.19 130.575 27.19C129.352 27.19 128.129 27.1027 126.907 26.928L125.335 26.535V5.575L122.846 4.65799C120.924 3.95933 119.134 3.60999 117.475 3.60999C113.195 3.60999 109.658 4.74533 106.864 7.016C104.156 9.28666 102.06 13.4787 100.576 19.592C99.1784 25.7053 98.4798 34.3513 98.4798 45.53C99.4404 44.0453 100.619 42.7353 102.017 41.6C105.335 38.98 109.178 37.67 113.545 37.67C119.92 37.67 125.466 38.8927 130.182 41.338C134.985 43.696 138.653 47.0147 141.186 51.294C143.718 55.5733 144.985 60.4203 144.985 65.835C144.985 75.1797 142.059 82.5593 136.208 87.974C130.444 93.3013 122.234 95.965 111.58 95.965ZM111.58 93.345C113.326 93.345 115.029 92.4717 116.689 90.725C118.435 88.9783 119.876 86.14 121.012 82.21C122.147 78.28 122.715 73.2583 122.715 67.145C122.715 61.0317 122.103 56.01 120.881 52.08C119.745 48.15 118.261 45.3117 116.427 43.565C114.68 41.8183 112.846 40.945 110.925 40.945C107.344 40.945 104.462 42.6917 102.279 46.185C100.183 49.6783 99.1348 55.1367 99.1348 62.56C99.1348 73.6513 100.314 81.555 102.672 86.271C105.117 90.987 108.086 93.345 111.58 93.345Z" fill="none" stroke="url(#paint0_linear)" stroke-width="2"/>

<defs>
<linearGradient id="paint0_linear" x1="68" y1="-14" x2="68" y2="83" gradientUnits="userSpaceOnUse">
<stop stop-color="white"/>
<stop offset="1" stop-color="white" stop-opacity="0"/>
</linearGradient>
</defs>
</svg>
