<svg width="139" height="96" viewBox="0 0 147 96" fill="none" xmlns="http://www.w3.org/2000/svg">
<path d="M38.885 95.965C31.811 95.965 25.392 94.0873 19.628 90.332C13.864 86.5767 9.279 81.1183 5.873 73.957C2.55433 66.7083 0.895 58.106 0.895 48.15C0.895 38.194 2.55433 29.6353 5.873 22.474C9.279 15.2253 13.864 9.72333 19.628 5.96799C25.392 2.21266 31.811 0.334996 38.885 0.334996C45.959 0.334996 52.378 2.21266 58.142 5.96799C63.906 9.72333 68.4473 15.2253 71.766 22.474C75.172 29.6353 76.875 38.194 76.875 48.15C76.875 58.106 75.172 66.7083 71.766 73.957C68.4473 81.1183 63.906 86.5767 58.142 90.332C52.378 94.0873 45.959 95.965 38.885 95.965ZM38.885 93.345C48.9283 93.345 53.95 78.28 53.95 48.15C53.95 18.02 48.9283 2.95499 38.885 2.95499C28.8417 2.95499 23.82 18.02 23.82 48.15C23.82 78.28 28.8417 93.345 38.885 93.345ZM108.305 95.965C97.3008 95.965 88.9604 93.7817 83.2838 89.415C77.6944 85.0483 74.8998 79.3717 74.8998 72.385C74.8998 67.5817 76.9958 62.953 81.1878 58.499C85.3798 53.9577 90.4888 50.7263 96.5148 48.805C90.7508 45.5737 86.3404 42.0367 83.2838 38.194C80.3144 34.264 78.8298 29.5043 78.8298 23.915C78.8298 16.9283 81.6244 11.2517 87.2138 6.885C92.8904 2.51833 101.231 0.334996 112.235 0.334996C117.737 0.334996 122.54 1.33933 126.645 3.348C130.837 5.35666 134.068 7.97666 136.339 11.208C138.609 14.4393 139.745 17.8017 139.745 21.295C139.745 25.3997 137.954 29.3733 134.374 33.216C130.88 37.0587 126.776 39.635 122.06 40.945C130.007 44.4383 136.033 48.5867 140.138 53.39C144.242 58.1933 146.295 64.0883 146.295 71.075C146.295 75.6163 144.897 79.7647 142.103 83.52C139.308 87.2753 135.072 90.2883 129.396 92.559C123.719 94.8297 116.689 95.965 108.305 95.965ZM118.13 38.325C121.448 36.8403 124.112 34.7007 126.121 31.906C128.217 29.1113 129.265 25.5743 129.265 21.295C129.265 18.151 128.479 15.2253 126.907 12.518C125.422 9.81066 123.457 7.67099 121.012 6.099C118.654 4.43966 116.165 3.60999 113.545 3.60999C109.789 3.60999 106.645 5.09466 104.113 8.064C101.667 10.946 100.445 14.9197 100.445 19.985C100.445 26.9717 106.34 33.085 118.13 38.325ZM106.995 92.69C112.584 92.69 116.907 91.1617 119.964 88.105C123.108 84.961 124.68 80.5943 124.68 75.005C124.68 70.813 122.584 66.5773 118.392 62.298C114.2 58.0187 108.654 54.3943 101.755 51.425C96.8641 53.1717 93.0214 55.7917 90.2268 59.285C87.4321 62.691 86.0348 67.0577 86.0348 72.385C86.0348 76.053 86.9518 79.459 88.7858 82.603C90.7071 85.6597 93.2398 88.105 96.3838 89.939C99.6151 91.773 103.152 92.69 106.995 92.69Z" fill="none" stroke="url(#paint0_linear)" stroke-width="2"/>
<defs>
<linearGradient id="paint0_linear" x1="68" y1="-14" x2="68" y2="83" gradientUnits="userSpaceOnUse">
<stop stop-color="white"/>
<stop offset="1" stop-color="white" stop-opacity="0"/>
</linearGradient>
</defs>
</svg>
