<svg width="139" height="96" viewBox="0 0 142 94" fill="none" xmlns="http://www.w3.org/2000/svg">
<path d="M37.88 93.92C30.968 93.92 24.696 92.0853 19.064 88.416C13.432 84.7467 8.952 79.4133 5.624 72.416C2.38133 65.3333 0.76 56.928 0.76 47.2C0.76 37.472 2.38133 29.1093 5.624 22.112C8.952 15.0293 13.432 9.65333 19.064 5.98399C24.696 2.31466 30.968 0.479996 37.88 0.479996C44.792 0.479996 51.064 2.31466 56.696 5.98399C62.328 9.65333 66.7653 15.0293 70.008 22.112C73.336 29.1093 75 37.472 75 47.2C75 56.928 73.336 65.3333 70.008 72.416C66.7653 79.4133 62.328 84.7467 56.696 88.416C51.064 92.0853 44.792 93.92 37.88 93.92ZM37.88 91.36C47.6933 91.36 52.6 76.64 52.6 47.2C52.6 17.76 47.6933 3.03999 37.88 3.03999C28.0667 3.03999 23.16 17.76 23.16 47.2C23.16 76.64 28.0667 91.36 37.88 91.36ZM103.79 93.92C98.7553 93.92 94.318 93.1093 90.478 91.488C86.7233 89.7813 83.822 87.648 81.774 85.088C79.8113 82.528 78.83 79.9253 78.83 77.28C78.83 74.3787 79.6833 72.0747 81.39 70.368C83.182 68.576 85.5287 67.68 88.43 67.68C89.1127 67.68 89.7953 67.7653 90.478 67.936C91.1607 68.0213 91.63 68.064 91.886 68.064L93.55 68.32V88.8L95.982 89.824C97.518 90.4213 99.2673 90.72 101.23 90.72C105.411 90.72 108.825 89.6107 111.47 87.392C114.115 85.1733 116.163 81.0773 117.614 75.104C119.065 69.1307 119.79 60.6827 119.79 49.76C119.022 51.04 117.827 52.32 116.206 53.6C112.963 56.16 109.251 57.44 105.07 57.44C98.8407 57.44 93.3793 56.288 88.686 53.984C84.078 51.5947 80.5367 48.3093 78.062 44.128C75.5873 39.9467 74.35 35.2107 74.35 29.92C74.35 20.7893 77.166 13.6213 82.798 8.41599C88.5153 3.12533 96.5793 0.479996 106.99 0.479996C117.742 0.479996 126.19 4.32 132.334 12C138.478 19.68 141.55 31.4133 141.55 47.2C141.55 62.56 138.179 74.208 131.438 82.144C124.782 89.9947 115.566 93.92 103.79 93.92ZM107.63 54.24C111.129 54.24 113.902 52.5333 115.95 49.12C118.083 45.7067 119.15 40.3733 119.15 33.12C119.15 22.2827 117.955 14.56 115.566 9.952C113.262 5.34399 110.403 3.03999 106.99 3.03999C105.283 3.03999 103.577 3.89333 101.87 5.6C100.249 7.30666 98.8833 10.08 97.774 13.92C96.6647 17.76 96.11 22.6667 96.11 28.64C96.11 34.6133 96.6647 39.52 97.774 43.36C98.9687 47.2 100.419 49.9733 102.126 51.68C103.918 53.3867 105.753 54.24 107.63 54.24Z" fill="none" stroke="url(#paint0_linear)" stroke-width="2"/>
<defs>
<linearGradient id="paint0_linear" x1="68" y1="-14" x2="68" y2="83" gradientUnits="userSpaceOnUse">
<stop stop-color="white"/>
<stop offset="1" stop-color="white" stop-opacity="0"/>
</linearGradient>
</defs>
</svg>
