<svg width="139" height="96" viewBox="0 0 118 94" fill="none" xmlns="http://www.w3.org/2000/svg">
<path d="M7.96 92V90.08L16.92 87.52V17.248L3.48 26.72L0.92 23.52L24.216 2.39999H38.04V87.52L47 90.08V92H7.96ZM80.345 93.92C73.433 93.92 67.161 92.0853 61.529 88.416C55.897 84.7467 51.417 79.4133 48.089 72.416C44.8463 65.3333 43.225 56.928 43.225 47.2C43.225 37.472 44.8463 29.1093 48.089 22.112C51.417 15.0293 55.897 9.65333 61.529 5.98399C67.161 2.31466 73.433 0.479996 80.345 0.479996C87.257 0.479996 93.529 2.31466 99.161 5.98399C104.793 9.65333 109.23 15.0293 112.473 22.112C115.801 29.1093 117.465 37.472 117.465 47.2C117.465 56.928 115.801 65.3333 112.473 72.416C109.23 79.4133 104.793 84.7467 99.161 88.416C93.529 92.0853 87.257 93.92 80.345 93.92ZM80.345 91.36C90.1583 91.36 95.065 76.64 95.065 47.2C95.065 17.76 90.1583 3.03999 80.345 3.03999C70.5317 3.03999 65.625 17.76 65.625 47.2C65.625 76.64 70.5317 91.36 80.345 91.36Z" fill="none" stroke="url(#paint0_linear)" stroke-width="2"/>
<defs>
<linearGradient id="paint0_linear" x1="68" y1="-14" x2="68" y2="83" gradientUnits="userSpaceOnUse">
<stop stop-color="white"/>
<stop offset="1" stop-color="white" stop-opacity="0"/>
</linearGradient>
</defs>
</svg>
